<svg xmlns="http://www.w3.org/2000/svg" viewBox="0 0 512 512" width="512" height="512">
  <defs>
    <style>
      .logo-bg { fill: #000000; }
      .logo-shape { fill: #FFFFFF; }
    </style>
  </defs>
  <rect class="logo-bg" width="512" height="512"/>
  <path class="logo-shape" d="M256 100 L400 400 L112 400 Z M256 180 L180 360 L332 360 Z M256 200 C220 200 190 230 190 266 C190 302 220 332 256 332 C292 332 322 302 322 266 C322 230 292 200 256 200 Z M256 240 C270 240 282 252 282 266 C282 280 270 292 256 292 C242 292 230 280 230 266 C230 252 242 240 256 240 Z"/>
</svg>
